<svg id="Layer_01" data-name="Layer 01"
	xmlns="http://www.w3.org/2000/svg"
	xmlns:xlink="http://www.w3.org/1999/xlink" viewBox="0 0 725 725">
	<defs>
		<style>.cls-1,.cls-2{fill:none;}.cls-2{stroke:#fff;stroke-linecap:round;stroke-linejoin:round;stroke-width:0.5px;}.cls-3{clip-path:url(#clip-path);}.cls-4{fill:#fff;fill-rule:evenodd;}</style>
		<clipPath id="clip-path">
			<rect class="cls-1" x="893.83" y="-21.16" width="368" height="659"/>
		</clipPath>
	</defs>
	<polyline class="cls-2" points="537.05 680.15 484.49 542.17 651.45 581.31"/>
	<circle class="cls-2" cx="362.5" cy="362.5" r="362.45" transform="translate(-150.15 362.5) rotate(-45)"/>
	<polyline class="cls-2" points="235.34 497.51 409.89 721.84 275.09 714.25 84.5 452.02 210.59 362.5 84.5 272.98"/>
	<polyline class="cls-2" points="426.78 291.64 422.55 298.15 464.33 316.05 404.57 277.21 440.53 319.08 488.14 313.01 342.48 250.61 468.09 338.32 502.38 295.03 284 234.36 490.54 351 508.52 266.06 235.34 227.49 477.03 362.5 215.43 336.11 259.16 240.8 431.53 357.91 226.06 312.94 278.73 254.09 383.69 347.44 244.79 292 295.17 268.72 345.53 332.21 266 282.2 311.75 289.61 305.77 307.21 288.87 285.91 308.76 298.41 297.32 296.56"/>
	<polyline class="cls-2" points="290.1 101.19 290.17 115.3 306.9 86.74 273.3 115.64 307.04 114.95 306.76 58.53 258.31 141.24 325.88 104.78 295.66 31.65 242.84 186.62 347.07 83.9 275.09 10.75 409.89 3.16 235.34 227.49 421.8 31.86 480.43 235.54 262.06 199.47 430.29 61.35 454.8 231.31 288.98 177.37 434.56 90.93 427.67 222.48 317.59 160.38 433.29 115.15 409.41 212.18 345.37 149.52 427.76 137.62 389.95 193.14 369.21 146.08 411.51 161.47 379.58 169.61 390.36 153.77 393.49 166.06 384.97 161.69"/>
	<polyline class="cls-2" points="345.58 30.25 343.35 21.72 363.25 27.1 327.92 33.39 358.78 10.05 367.71 44.16 299.25 25.63 378.32 4.94 362.22 64.42 275.09 10.75 84.5 272.98 235.34 227.49 179.79 141.86 58.18 165.62 85.41 362.5 39.21 338.91 67 229.42 66.04 352.61 50.45 294.64 66.56 286.5 55.24 312.46 58.5 290.57"/>
	<polyline class="cls-2" points="409.89 3.16 525.74 74.54 469.42 146.53 442.56 23.29 509.18 95.7 461.95 112.24 465.95 48.71 491.96 101.73 463.35 89.96 478.95 75.22 477.66 95.84 471.15 82.59"/>
	<polyline class="cls-2" points="484.49 182.83 554.46 59.9 626.05 149.65 497.91 159.26 569.7 79 600.98 151.53 517.73 137.1 578.89 100.3 578.43 147.62 537.67 125.1 578.66 123.96 561.35 138.18 560.96 124.45"/>
	<polyline class="cls-2" points="537.05 44.85 484.49 182.83 651.45 143.69 495.19 208.58 570.59 335.28 622.41 155.75 510.84 234.89 580.01 302.63 590.85 178.14 531.41 255.03 582.5 274.04 572.56 201.8 556.96 264.54 577.53 237.92 564.76 233.17 567.24 251.23"/>
	<polyline class="cls-2" points="506.74 236.41 542.63 362.5 512.89 338.99 519.47 281.13 527.76 350.74 515.27 318.07 523.75 317.06 519.61 329.43"/>
	<polyline class="cls-2" points="699.67 319.45 684.13 291.58 699.37 302.25 699.98 336.64 667.21 243.47 708.92 319.7 691.04 353.58 656.39 193.46 717.52 340.37 673.16 362.5 651.45 143.69 582.12 362.5 651.45 335.88 633.36 200.79 603.81 354.17 647.22 304.27 622.98 254.66 619.95 335.62 635.1 279.46 621.81 286 628.05 305.61 628.45 282.73"/>
	<polyline class="cls-2" points="184.23 292.86 174.87 283.57 195.56 286.14 172.89 299.57 176.49 270.54 207.91 296.23 151.05 301.66 191.39 252.31 214.42 313.55 127.15 297.17 211.06 238.58 215.43 336.11 104.53 287.2 235.34 227.49 100.76 250.6 191.36 159.69 210.6 231.74 119.61 231.68 196.12 177.5 191.33 231.73 139.41 217.66 194.51 195.66 176.7 227.76 158.92 209.87 185.6 211.71 167.81 218.82 168.38 210.52"/>
	<polyline class="cls-2" points="113.23 319.85 125.91 338.29 122.86 316.32 103.59 323.37 148.22 353.21 108.47 295.39 100.8 339.46 180.25 362.5 84.5 272.98 151.98 147.3 63.64 187.9 101.34 241.6 118.3 162.78 77.72 207.96 107.22 214.3 104.82 177.79 92.47 211.13 106.18 198.59 98.64 194.46 99.33 204.86 102.41 196.52"/>
	<polyline class="cls-2" points="141.21 120.13 157.8 114.4 150.83 111.28 123.31 136.61 192.29 92.19 117.32 126.71 129.3 146.52 234.42 55.85 86.98 145.06 151.98 147.3 275.09 10.75 191.36 159.69 239.91 202.57 254.56 47.27 211.32 177.32 242.63 173.81 237.46 98.71 223.67 175.94 241.19 152.92 231.44 132.38 233.89 162.5 237.2 144.51 232.67 147.44"/>
	<polyline class="cls-2" points="81.86 133.13 248 18.61 58.18 165.62 22.67 362.5 7.82 336.19 40.99 260.93 17.31 353 19.58 309.5 27.95 311.65 18.45 331.25"/>
	<line class="cls-2" x1="1.27" y1="358.38" x2="38.08" y2="200.88"/>
	<polygon class="cls-2" points="235.34 227.49 514.3 362.5 506.74 236.41 235.34 227.49"/>
	<polygon class="cls-2" points="235.34 497.51 514.3 362.5 506.74 488.6 235.34 497.51"/>
	<line class="cls-2" x1="275.09" y1="714.25" x2="347.07" y2="641.1"/>
	<polyline class="cls-2" points="58.18 559.38 36.63 362.5 106.44 362.5 58.18 559.38 275.09 714.25 210.59 362.5 514.3 362.5 559.1 362.5 409.89 721.84 537.05 680.15 651.45 581.31 559.1 362.5 651.45 362.5 651.45 581.31 724.95 362.5 0.05 362.5 58.18 165.62 36.63 362.5 106.44 362.5 58.18 165.62 275.09 10.75 210.59 362.5 514.3 362.5 559.1 362.5 409.89 3.16 537.05 44.85 651.45 143.69 559.1 362.5 651.45 362.5 651.45 143.69 724.95 362.5"/>
	<g class="cls-3">
		<path class="cls-4" d="M487.83,523.84a61,61,0,0,1-61,61h-170a61,61,0,0,1-61-61v-461a61,61,0,0,1,61-61h170a61,61,0,0,1,61,61Z"/>
	</g>
</svg>